<svg xmlns="http://www.w3.org/2000/svg" width="24" height="24" viewBox="0 0 24 24" fill="none">
  <path d="M8.75 7V5.75C8.75 4.78 9.53 4 10.5 4H13.5C14.47 4 15.25 4.78 15.25 5.75V7" stroke="#000000" stroke-width="1.8" stroke-linecap="round" stroke-linejoin="round"/>
  <path d="M7.75 7H16.25C17.49 7 18.5 8.01 18.5 9.25V18C18.5 19.66 17.16 21 15.5 21H8.5C6.84 21 5.5 19.66 5.5 18V9.25C5.5 8.01 6.51 7 7.75 7Z" stroke="#000000" stroke-width="1.8" stroke-linecap="round" stroke-linejoin="round"/>
  <path d="M5.5 10.5H18.5" stroke="#000000" stroke-width="1.8" stroke-linecap="round" stroke-linejoin="round"/>
  <rect x="8.5" y="13.25" width="7" height="4.25" rx="1.4" stroke="#000000" stroke-width="1.8" stroke-linecap="round" stroke-linejoin="round"/>
  <path d="M10.75 7V5.75C10.75 5.34 11.09 5 11.5 5H12.5C12.91 5 13.25 5.34 13.25 5.75V7" stroke="#000000" stroke-width="1.8" stroke-linecap="round" stroke-linejoin="round"/>
</svg>
