<svg xmlns="http://www.w3.org/2000/svg" width="24" height="24" viewBox="0 0 24 24" fill="none">
  <path d="M15.65 4.35L16.52 6.48L18.65 7.35L16.52 8.22L15.65 10.35L14.78 8.22L12.65 7.35L14.78 6.48L15.65 4.35Z" fill="#000000"/>
  <path d="M19 10.75L19.47 11.88L20.6 12.35L19.47 12.82L19 13.95L18.53 12.82L17.4 12.35L18.53 11.88L19 10.75Z" fill="#000000"/>
  <path d="M6.25 18.75L4.75 17.25L15.25 6.75L16.75 8.25L6.25 18.75Z" fill="#000000"/>
  <path d="M5.25 19.75L6.25 18.75L4.75 17.25L3.75 18.25C3.34 18.66 3.34 19.34 3.75 19.75C4.16 20.16 4.84 20.16 5.25 19.75Z" fill="#000000"/>
  <path d="M7.4 16.1L5.9 14.6" stroke="#000000" stroke-width="1.8" stroke-linecap="round"/>
</svg>
