<svg xmlns="http://www.w3.org/2000/svg" width="24" height="24" viewBox="0 0 24 24" fill="none">
  <circle cx="12" cy="12" r="8.5" stroke="#000000" stroke-width="1.8"/>
  <path d="M3.5 12H20.5" stroke="#000000" stroke-width="1.8" stroke-linecap="round"/>
  <path d="M12 3.5C14.56 5.73 16 8.78 16 12C16 15.22 14.56 18.27 12 20.5C9.44 18.27 8 15.22 8 12C8 8.78 9.44 5.73 12 3.5Z" stroke="#000000" stroke-width="1.8" stroke-linejoin="round"/>
  <path d="M6.25 8.5C7.83 9.33 9.85 9.8 12 9.8C14.15 9.8 16.17 9.33 17.75 8.5" stroke="#000000" stroke-width="1.8" stroke-linecap="round"/>
  <path d="M6.25 15.5C7.83 14.67 9.85 14.2 12 14.2C14.15 14.2 16.17 14.67 17.75 15.5" stroke="#000000" stroke-width="1.8" stroke-linecap="round"/>
</svg>
